<svg id="图层_1" data-name="图层 1" xmlns="http://www.w3.org/2000/svg" width="45.11mm" height="8.47mm" viewBox="0 0 127.87 24">
  <defs>
    <style>
      .cls-1 {
        fill: #231815;
      }
    </style>
  </defs>
  <g>
    <path class="cls-1" d="M165.51,297.62h-10v7.25h9.24v.51h-9.24v8.28h10v.5H155v-17h10.49Z" transform="translate(-155.02 -295.2)"/>
    <path class="cls-1" d="M178.52,314.16h-.67l-4.95-6.38L168,314.16h-.65l5.28-6.77-4.44-5.71h.67L173,307l4.16-5.35h.64l-4.48,5.76Z" transform="translate(-155.02 -295.2)"/>
    <path class="cls-1" d="M188.33,303.91h8v7.61a7.57,7.57,0,0,1-3.19,2.16,12.9,12.9,0,0,1-4.51.77,8.75,8.75,0,0,1-6.48-2.59,9.13,9.13,0,0,1-2.38-6.39,8.67,8.67,0,0,1,2.81-6.69,10,10,0,0,1,6.79-2.43,10.6,10.6,0,0,1,3.5.6,11,11,0,0,1,3.27,1.83l-2.11,3.48a6,6,0,0,0-2.14-1.27,6.78,6.78,0,0,0-2.42-.46,5.33,5.33,0,0,0-3.65,1.3,4.41,4.41,0,0,0-1.51,3.59,4.7,4.7,0,0,0,1.41,3.61,4.81,4.81,0,0,0,3.39,1.29,7,7,0,0,0,1.6-.17,5.09,5.09,0,0,0,1.32-.45v-2.16h-3.72Z" transform="translate(-155.02 -295.2)"/>
    <path class="cls-1" d="M205,301.15a5.51,5.51,0,0,1,1.54-.12,6.82,6.82,0,0,1,1.6.34l-1,3.84A4.31,4.31,0,0,0,205,305a5,5,0,0,0-2.45,1.18v7.94h-4.25v-13h4l.24,1.42A4.23,4.23,0,0,1,205,301.15Z" transform="translate(-155.02 -295.2)"/>
    <path class="cls-1" d="M214.25,301a6.6,6.6,0,0,1,4.49,1.34,5,5,0,0,1,1.51,4v7.87h-3.6l-.36-.91a4.75,4.75,0,0,1-3.43,1.15,5.28,5.28,0,0,1-3.43-1.06,3.62,3.62,0,0,1-1.34-3,3.32,3.32,0,0,1,1.63-2.84,7.66,7.66,0,0,1,4.37-1.1,11.5,11.5,0,0,1,2,.17v-.12a2,2,0,0,0-.57-1.39,2.32,2.32,0,0,0-1.54-.44,11.28,11.28,0,0,0-4.32,1l-1.13-3.29A14.27,14.27,0,0,1,214.25,301Zm-2,9.34a1.08,1.08,0,0,0,.39.84,1.74,1.74,0,0,0,1.17.33,3.78,3.78,0,0,0,1.18-.17,4.41,4.41,0,0,0,1.1-.59v-1.56a7.16,7.16,0,0,0-1.46-.15,3.67,3.67,0,0,0-1.68.34A1,1,0,0,0,212.26,310.3Z" transform="translate(-155.02 -295.2)"/>
    <path class="cls-1" d="M230.19,301a5.2,5.2,0,0,1,4.2,1.75,6.89,6.89,0,0,1,1.49,4.63,7.75,7.75,0,0,1-1.61,5.21,5.33,5.33,0,0,1-4.2,1.85,9.23,9.23,0,0,1-2.14-.31,4.38,4.38,0,0,1-1.24-.63v5.74h-4.28v-18h3.89l.22,1a4.93,4.93,0,0,1,1.68-.93A5.7,5.7,0,0,1,230.19,301Zm-1.54,9.87a2.81,2.81,0,0,0,2.21-.92,3.71,3.71,0,0,0,.82-2.59,2.84,2.84,0,0,0-.72-2.09,2.66,2.66,0,0,0-1.92-.72,3.73,3.73,0,0,0-1.3.24,5.3,5.3,0,0,0-1.05.55v4.95a3.36,3.36,0,0,0,.93.46A3.59,3.59,0,0,0,228.65,310.83Z" transform="translate(-155.02 -295.2)"/>
    <path class="cls-1" d="M245.81,301a5.57,5.57,0,0,1,3.77,1.2,4,4,0,0,1,1.37,3.22v8.78h-4.27V307a2,2,0,0,0-.65-1.66,2.61,2.61,0,0,0-1.7-.52,3,3,0,0,0-1.23.28,5,5,0,0,0-1.27.75v8.3h-4.27v-19h4.27v7.15a8.4,8.4,0,0,1,1.8-1A6.31,6.31,0,0,1,245.81,301Z" transform="translate(-155.02 -295.2)"/>
    <path class="cls-1" d="M257.43,295.2v3.6h-4.37v-3.6Zm-.05,6v13h-4.25v-13Z" transform="translate(-155.02 -295.2)"/>
    <path class="cls-1" d="M271.37,312.36A6.13,6.13,0,0,1,269,313.9a9.33,9.33,0,0,1-3.19.5,6.62,6.62,0,0,1-4.94-2,6.83,6.83,0,0,1-1.85-4.75,6.26,6.26,0,0,1,2-4.8,7.28,7.28,0,0,1,5.24-1.87,7.82,7.82,0,0,1,2.75.46,9.09,9.09,0,0,1,2.38,1.29l-1.92,3a4.46,4.46,0,0,0-3-1.08,3.35,3.35,0,0,0-2.3.81,2.81,2.81,0,0,0-.93,2.21,3,3,0,0,0,.93,2.31,3.35,3.35,0,0,0,2.3.81,3.64,3.64,0,0,0,2.65-1.08Z" transform="translate(-155.02 -295.2)"/>
    <path class="cls-1" d="M274,310.11a7.84,7.84,0,0,0,3.4,1.05,2.61,2.61,0,0,0,1.11-.19.67.67,0,0,0,.38-.6c0-.34-.25-.62-.74-.84a12.82,12.82,0,0,0-2.14-.74,5,5,0,0,1-2.9-2,3.65,3.65,0,0,1-.55-2,3.38,3.38,0,0,1,1.48-2.72A6.12,6.12,0,0,1,278,301a10.64,10.64,0,0,1,2.4.27,6.53,6.53,0,0,1,2.19,1L281.14,305a6.84,6.84,0,0,0-2.95-.82,2.23,2.23,0,0,0-1.08.22.64.64,0,0,0-.38.58c0,.41.28.74.81,1a13.2,13.2,0,0,0,2.09.65,4.73,4.73,0,0,1,2.42,1.34,3.51,3.51,0,0,1,.84,2.47,3.57,3.57,0,0,1-1.63,3,6.15,6.15,0,0,1-3.41,1,8.69,8.69,0,0,1-5.35-1.51Z" transform="translate(-155.02 -295.2)"/>
  </g>
</svg>
